<?xml version="1.0" standalone="no"?>
<!DOCTYPE svg PUBLIC "-//W3C//DTD SVG 20010904//EN"
 "http://www.w3.org/TR/2001/REC-SVG-20010904/DTD/svg10.dtd">
<svg version="1.0" xmlns="http://www.w3.org/2000/svg"
 width="336.000000pt" height="336.000000pt" viewBox="0 0 336.000000 336.000000"
 preserveAspectRatio="xMidYMid meet">
<metadata>
Created by potrace 1.14, written by Peter Selinger 2001-2017
</metadata>
<g transform="translate(0.000000,336.000000) scale(0.100000,-0.100000)"
fill="#000000" stroke="none">
<path d="M1320 3039 c0 -4 -6 -6 -14 -3 -8 3 -29 -3 -48 -12 -18 -10 -36 -17
-40 -16 -5 1 -8 -2 -8 -7 0 -5 -13 -12 -30 -16 -16 -4 -30 -11 -30 -17 0 -6
-7 -8 -15 -4 -9 3 -15 0 -15 -10 0 -8 -4 -13 -9 -9 -5 3 -16 -2 -24 -10 -9 -8
-20 -15 -26 -15 -6 0 -11 -4 -11 -9 0 -5 -10 -12 -22 -16 -13 -4 -25 -8 -28
-9 -3 -1 -24 -8 -47 -16 -24 -7 -43 -17 -43 -22 0 -4 -3 -7 -7 -6 -15 4 -53
-14 -53 -24 0 -6 -3 -8 -7 -5 -3 4 -12 2 -20 -4 -7 -6 -13 -8 -13 -4 0 5 -8 1
-17 -8 -10 -8 -21 -16 -25 -17 -4 0 -23 -7 -42 -15 -20 -8 -40 -15 -46 -15 -5
0 -10 -4 -10 -10 0 -5 -9 -10 -20 -10 -11 0 -20 -5 -20 -11 0 -5 -4 -8 -8 -5
-5 3 -20 -1 -35 -9 -15 -8 -27 -11 -27 -8 0 3 -6 0 -13 -6 -8 -6 -17 -8 -20
-4 -4 3 -13 0 -22 -7 -8 -7 -23 -14 -33 -15 -29 -3 -72 -24 -72 -35 0 -6 -4
-9 -9 -5 -5 3 -16 -2 -24 -10 -9 -8 -21 -15 -27 -15 -6 0 -8 -4 -5 -10 3 -5 1
-10 -5 -10 -14 0 -40 -25 -40 -39 0 -6 -7 -8 -15 -4 -9 3 -15 2 -13 -3 5 -17
-86 -116 -97 -106 -5 4 -5 2 -2 -4 4 -6 -7 -26 -23 -44 -17 -19 -30 -38 -30
-42 0 -5 -4 -6 -10 -3 -5 3 -10 1 -10 -5 0 -6 -12 -22 -26 -35 -15 -14 -24
-25 -20 -25 4 0 1 -6 -6 -14 -11 -11 -14 -64 -13 -267 0 -140 4 -259 8 -266 4
-6 4 -14 -1 -17 -9 -5 -8 -89 2 -105 4 -6 3 -11 -1 -11 -10 0 -9 -212 1 -229
4 -6 4 -11 -1 -11 -11 0 -10 -701 1 -719 6 -10 5 -12 -2 -7 -7 4 -12 2 -12 -3
0 -6 7 -11 15 -11 8 0 15 -4 15 -9 0 -9 33 -22 65 -25 11 0 27 -5 35 -11 8 -5
21 -10 30 -11 8 -1 26 -5 40 -9 14 -3 36 -8 50 -11 13 -3 29 -9 36 -15 6 -5
24 -11 40 -13 16 -2 36 -6 44 -9 8 -4 29 -8 45 -11 17 -2 30 -5 30 -6 0 -7 64
-11 170 -11 132 0 187 5 206 16 8 6 10 4 4 -5 -6 -10 -4 -11 6 -4 8 4 37 9 64
10 28 2 50 3 50 4 0 1 41 3 90 4 50 2 111 6 137 10 25 5 66 9 90 10 24 1 48 4
53 7 6 3 22 5 38 4 15 0 27 3 27 8 0 5 9 7 20 4 11 -3 23 -1 26 4 3 6 11 8 17
6 7 -2 27 2 45 9 19 8 32 9 32 3 0 -6 7 -6 20 1 10 6 23 10 27 9 4 -1 10 -1
13 0 3 1 25 4 50 7 24 2 47 9 51 15 5 8 8 8 10 0 3 -7 11 -7 29 2 14 7 36 13
50 12 14 0 27 3 30 7 3 4 19 9 35 12 17 2 30 5 30 6 0 1 9 3 20 5 11 1 52 13
90 25 39 12 71 21 71 19 1 -2 11 5 23 15 12 11 21 16 21 13 0 -5 75 32 155 77
27 15 71 59 67 69 -1 4 1 6 6 5 4 -2 14 3 22 10 8 7 24 20 35 28 11 9 14 12 6
8 -9 -5 -12 -3 -7 4 4 7 14 12 23 12 9 0 13 3 10 7 -4 3 2 13 13 20 11 8 18
19 15 24 -4 5 2 6 12 2 10 -3 15 -3 11 2 -4 4 -2 17 4 29 7 11 11 24 10 29 -1
4 2 7 6 7 4 0 9 11 10 26 3 33 21 66 33 59 5 -4 9 -1 9 4 0 6 3 10 8 9 14 -3
62 22 62 32 0 6 4 9 9 6 5 -3 20 6 35 21 14 14 26 22 26 18 0 -4 11 4 25 19
13 14 27 26 30 26 8 0 92 66 120 94 18 19 55 79 55 91 0 3 0 6 1 8 5 16 4 49
-3 53 -4 3 -8 15 -8 27 -1 12 -7 33 -15 47 -9 18 -10 29 -3 38 8 9 6 11 -8 7
-10 -3 -8 -1 6 6 14 6 33 15 42 20 10 5 25 9 33 9 8 0 15 5 15 10 0 6 3 9 8 8
34 -9 110 53 118 97 3 16 7 32 10 36 2 4 0 10 -5 14 -5 3 -8 14 -6 25 2 11 -1
20 -7 20 -6 0 -8 3 -5 7 4 3 -3 17 -15 30 -12 13 -18 23 -15 23 4 0 -3 11 -15
25 -11 13 -25 22 -30 19 -4 -3 -8 0 -8 6 0 6 -4 8 -10 5 -5 -3 -10 -2 -10 3 0
5 -11 12 -25 14 -14 3 -25 1 -25 -5 0 -5 -7 -4 -15 3 -10 9 -15 9 -15 1 0 -6
-9 -11 -21 -11 -11 0 -45 -11 -75 -25 -31 -14 -65 -27 -77 -29 -12 -3 -23 -5
-24 -7 -2 -1 -6 -2 -10 -3 -30 -7 -59 -20 -65 -30 -5 -8 -8 -7 -8 2 0 10 -6 9
-29 -2 -15 -8 -50 -18 -77 -22 -27 -3 -50 -10 -52 -15 -2 -5 -10 -2 -19 6 -8
9 -12 22 -9 30 3 8 0 15 -5 15 -6 0 -9 9 -6 20 3 11 1 20 -4 20 -4 0 -6 8 -3
18 3 9 8 24 10 32 5 13 6 13 14 0 6 -8 10 -10 10 -4 0 6 15 10 33 10 43 0 174
13 212 20 17 4 36 7 43 7 6 0 12 5 12 11 0 6 4 4 10 -4 8 -12 10 -12 16 3 3 9
10 17 16 17 16 0 35 25 32 43 -1 9 1 17 6 17 13 0 -18 104 -35 116 -8 6 -15
15 -15 20 0 5 -16 16 -36 25 -37 16 -199 18 -359 4 -38 -3 -87 -7 -107 -9 -21
-2 -35 1 -32 6 3 4 -1 8 -8 8 -7 0 -41 26 -75 58 -70 64 -76 69 -119 99 -17
13 -34 20 -38 16 -3 -3 -6 -1 -6 5 0 12 -62 42 -92 45 -10 1 -18 6 -18 11 0 5
-3 6 -6 3 -4 -3 -16 -1 -28 5 -11 7 -25 11 -30 10 -4 -2 -14 3 -22 9 -8 6 -14
8 -14 4 0 -4 -6 -3 -12 3 -14 11 -78 27 -92 23 -5 -1 -13 4 -17 11 -6 8 -9 9
-9 2 0 -8 -11 -9 -34 -4 -19 4 -37 6 -39 4 -2 -2 -37 -6 -78 -8 -80 -5 -100
-9 -141 -25 -16 -6 -28 -8 -28 -5 0 4 -6 2 -12 -4 -18 -14 -62 4 -52 20 5 8 0
7 -11 -2 -17 -14 -18 -14 -5 10 14 26 40 56 40 46 0 -3 8 2 18 12 11 9 17 20
15 23 -1 4 4 10 13 13 8 3 12 10 9 16 -3 5 1 10 9 10 8 0 18 5 22 12 4 7 3 8
-5 4 -6 -4 0 9 14 29 13 21 22 41 19 46 -3 5 -1 9 5 9 5 0 8 8 6 18 -1 9 2 25
7 35 5 11 5 17 -1 17 -7 0 -7 8 -2 23 6 15 5 29 -5 41 -7 11 -11 23 -8 27 3 5
0 9 -5 9 -6 0 -11 7 -11 15 0 8 -5 15 -11 15 -5 0 -8 4 -5 9 3 4 -7 14 -22 21
-35 17 -52 20 -52 9z"/>
</g>
</svg>
